<svg width="58" height="69" viewBox="0 0 58 69" fill="none" xmlns="http://www.w3.org/2000/svg">
<path fill-rule="evenodd" clip-rule="evenodd" d="M26.753 49.0408C22.6194 49.5818 20.3018 49.5098 16.1682 49.0408C12.6562 47.2576 12.174 45.3961 12.1676 41.581C7.07672 37.0141 4.83283 33.9295 2.0829 27.3523C0.423487 16.8458 2.71682 12.2836 12.6677 6.56179C13.9083 6.1799 15.0255 5.86488 16.0778 5.60257C18.1405 5.08838 19.9537 4.77675 21.958 4.56109C23.3576 4.41049 24.8503 4.30668 26.5863 4.21336C27.4453 4.27081 28.2581 4.33064 29.0312 4.39571C35.4268 4.93396 39.104 5.83056 43.672 8.70301C52.995 16.946 54.6158 22.6319 47.0892 35.8481C48.4907 41.745 46.6066 44.6891 44.7555 45.3109C41.1193 47.0118 39.1132 47.705 35.5876 48.4882C34.8058 49.6195 34.5358 50.0638 34.254 50.6294C37.1636 52.4525 37.314 54.4308 34.9208 59.6778C37.2612 63.3876 38.3951 60.7943 40.1174 56.855L40.1174 56.855C41.0574 54.7049 42.1728 52.1538 43.7554 50.0078C46.0431 46.9053 49.6719 47.2492 51.7422 48.9311C52.0847 48.8138 52.4519 48.733 52.8447 48.6954C58.3311 48.6544 58.7498 51.7133 56.5071 57.3293C53.6002 62.4615 51.4057 64.6683 46.2557 67.1375C42.6585 67.3242 40.7377 67.0118 37.5045 65.6179C36.8064 66.0551 36.443 66.1575 35.8376 66.1014C34.5125 65.6154 33.7685 65.3308 32.4205 64.5818H29.42C29.0845 64.5279 28.9017 64.4557 28.5866 64.2365H25.6695C23.1267 66.0044 22.071 66.4266 20.0854 66.5158C19.1293 66.0814 18.9885 65.5194 19.0853 64.2365C19.2528 63.7666 19.5096 63.5312 20.0854 63.1313C19.694 62.9376 19.4764 62.9399 19.0853 63.1313C17.34 64.1023 16.1169 65.0892 15.0287 65.9673L15.0286 65.9673L15.0286 65.9674C13.0145 67.5926 11.4623 68.845 7.91705 68.9333C0.00912463 65.5505 -2.99098 53.7003 3.66646 49.0408C5.32836 48.5408 6.08273 48.62 7.0836 49.4552L6.90057 50.8637C7.08786 50.2916 7.39415 49.7054 7.91705 49.0408C11.1792 47.8722 12.1018 48.6463 13.5845 50.284C15.4193 53.973 15.7839 56.0284 15.5848 59.6778C16.0249 59.9236 16.3196 59.9153 16.9183 59.6778C16.73 59.0756 16.7034 58.7643 17.335 58.4345C17.4792 58.4061 17.6106 58.3936 17.7323 58.3948C17.423 58.1427 17.2684 57.8939 17.335 57.6056C17.461 56.4593 17.8408 56.0806 18.6685 55.5335C16.6228 54.8431 16.958 53.5435 19.0853 50.284C20.7133 52.0881 21.4056 53.0857 20.0854 54.7046C20.5651 54.8447 20.8595 54.8446 21.4189 54.7046C22.3101 50.8087 23.2897 49.7747 26.3363 51.0438C27.0798 50.675 26.9824 50.3566 26.8523 49.9316C26.7759 49.682 26.6883 49.3957 26.753 49.0408ZM44.3595 13.7886C44.1623 13.8698 43.9225 14.0471 43.6167 14.367L42.8938 13.676C43.2363 13.3177 43.5912 13.0235 43.9786 12.8639C44.3897 12.6946 44.8123 12.6874 45.2394 12.859C45.6429 13.0211 46.0238 13.3318 46.4051 13.7437C46.7902 14.1597 47.2052 14.7116 47.6701 15.3992L46.8416 15.9593C46.3881 15.2885 46.0059 14.7846 45.6713 14.4231C45.3329 14.0576 45.0716 13.8693 44.8666 13.7869C44.6852 13.7141 44.5331 13.7171 44.3595 13.7886ZM20.6727 17.6897C20.4609 19.3953 20.4983 20.7227 21.0023 21.8997C21.2137 22.3934 21.5016 22.8477 21.8699 23.2848C21.6625 23.2538 21.4564 23.2557 21.246 23.2919L21.299 23.2201C19.92 22.2033 19.1195 21.3802 18.6716 20.4763C18.2272 19.5794 18.0996 18.5406 18.2016 17.0252L17.2038 16.9581C17.0966 18.5512 17.2181 19.7952 17.7756 20.9203C18.2695 21.9171 19.0813 22.7709 20.2593 23.6873C20.0349 23.8226 19.7994 23.991 19.548 24.1939C18.6508 23.7478 18.0572 23.3251 17.5928 22.8074C17.0965 22.2543 16.7189 21.561 16.2971 20.5319L15.3718 20.9112C15.8098 21.9795 16.2393 22.7962 16.8484 23.4752C17.3756 24.0628 18.0159 24.5238 18.8602 24.9656C17.1407 28.1133 17.786 33.8551 21.002 40.0615C23.1786 39.6048 24.5944 40.0055 26.5861 40.8212C27.7521 33.1042 27.2962 29.7169 24.7525 25.142C24.553 24.9629 24.3634 24.7957 24.1821 24.6408L24.4619 24.2531C23.0883 23.2615 22.3205 22.4378 21.9216 21.5061C21.5221 20.5732 21.4607 19.4587 21.6651 17.813L20.6727 17.6897ZM41.5092 19.2304C41.7071 20.4193 41.7005 21.3022 41.4308 22.1804C41.159 23.0657 40.6062 23.992 39.6258 25.2416C39.4441 25.4663 39.2644 25.7096 39.0877 25.971C36.8891 31.2668 36.2454 34.3509 37.5875 40.3378C39.7558 39.2297 40.8808 38.8497 42.6715 38.7492C42.6375 38.7404 42.7663 38.4528 42.9873 37.9592C43.8515 36.0289 46.126 30.9489 45.5886 27.0761C45.4214 25.871 45.0969 24.96 44.6639 24.3296C45.4131 23.8344 46.0052 23.3585 46.5019 22.7652C47.0658 22.0918 47.4836 21.2952 47.891 20.2061L46.9544 19.8557C46.5692 20.8855 46.2 21.5681 45.7352 22.1233C45.2929 22.6515 44.743 23.0896 43.9509 23.6008C43.8048 23.5019 43.6521 23.424 43.494 23.3669C44.3645 22.3923 45.0213 21.5109 45.4549 20.4872C45.9375 19.3475 46.1265 18.0734 46.0882 16.3588L45.0885 16.3811C45.1248 18.0108 44.9431 19.1314 44.5341 20.0972C44.1226 21.0689 43.464 21.9257 42.4698 23.0079L42.7323 23.2491C42.505 23.2566 42.271 23.2995 42.0326 23.3769C42.1768 23.0735 42.2945 22.7745 42.3868 22.4739C42.7181 21.395 42.7081 20.3425 42.4956 19.0662L41.5092 19.2304ZM15.3295 15.7561C15.7956 15.0808 16.1904 14.5758 16.5393 14.2185C16.8915 13.8579 17.1655 13.681 17.3836 13.6116C17.7339 13.5003 18.1467 13.6147 18.8813 14.4262L19.6226 13.7551C18.8607 12.9134 18.0509 12.3502 17.0807 12.6586C16.6385 12.7992 16.2276 13.1065 15.8239 13.5198C15.417 13.9365 14.9849 14.4949 14.5065 15.188L15.3295 15.7561Z" fill="#FAE02B"/>
<path d="M29.5866 44.5138C30.2581 43.699 30.6009 43.1968 30.9201 42.0963C32.4389 40.1125 35.1751 40.277 36.6709 41.6639C36.3909 42.111 35.6954 42.4491 34.0872 42.7757C33.9377 42.8061 33.7803 42.8364 33.6146 42.8666C32.2209 43.2504 32.2247 44.428 32.2995 44.6267C32.382 44.8456 33.4357 45.6555 34.0872 45.7391C34.2261 46.4373 33.7291 46.6074 32.4203 46.9313C31.0663 46.9295 30.5254 46.0161 29.5866 44.5138Z" fill="#E62B26"/>
<path d="M28.5664 45.5269L29.5866 44.5138M29.5866 44.5138C30.2581 43.699 30.6009 43.1968 30.9201 42.0963C32.4389 40.1125 35.1751 40.277 36.6709 41.6639C36.2506 42.3351 34.8941 42.7604 30.9201 43.2705C32.7816 43.1349 33.4904 42.6049 34.0872 42.7757C32.2208 42.9994 32.2171 44.4077 32.2995 44.6267C32.382 44.8456 33.4357 45.6555 34.0872 45.7391C34.2261 46.4373 33.7291 46.6074 32.4203 46.9313C31.0663 46.9295 30.5254 46.0161 29.5866 44.5138Z" stroke="#E62B26" stroke-width="2"/>
</svg>
